<svg width="71" height="70" viewBox="0 0 71 70" fill="none" xmlns="http://www.w3.org/2000/svg">
<g id="Salesforce" filter="url(#filter0_b_1_9470)">
<rect x="0.5" width="70" height="70" rx="35" fill="#10152F" fill-opacity="0.1"/>
<g id="Vector (Stroke)">
<path d="M35.0177 14.6136C35.318 14.4483 35.682 14.4483 35.9823 14.6136L41.5802 17.6954C42.2705 18.0754 42.2705 19.0674 41.5802 19.4475L26.0349 28.0054C25.7346 28.1707 25.3706 28.1707 25.0704 28.0054L19.4724 24.9236C18.7821 24.5436 18.7821 23.5516 19.4724 23.1716L35.0177 14.6136Z" fill="url(#paint0_linear_1_9470)"/>
<path d="M29.4198 30.3998C28.7295 30.0198 28.7295 29.0278 29.4198 28.6478L44.9651 20.0898C45.2654 19.9245 45.6294 19.9245 45.9296 20.0898L51.5276 23.1716C52.2179 23.5516 52.2179 24.5436 51.5276 24.9236L35.9823 33.4816C35.682 33.6469 35.318 33.6469 35.0177 33.4816L29.4198 30.3998Z" fill="url(#paint1_linear_1_9470)"/>
<path d="M24.999 30.472C25.0046 30.4751 25.0102 30.4783 25.0159 30.4814C25.0208 30.4841 25.0258 30.4868 25.0309 30.4895L33.877 35.3594C34.1964 35.5352 34.3947 35.8709 34.3947 36.2354V53.3513C34.3947 54.1121 33.5789 54.5943 32.9125 54.2274L17.2283 45.593C16.9089 45.4171 16.7105 45.0815 16.7105 44.7169V27.601C16.7105 26.8403 17.5263 26.3581 18.1928 26.725L24.999 30.472Z" fill="url(#paint2_linear_1_9470)"/>
<path fill-rule="evenodd" clip-rule="evenodd" d="M54.2895 44.7169C54.2895 45.0815 54.0911 45.4171 53.7717 45.593L38.0875 54.2274C37.4211 54.5943 36.6053 54.1121 36.6053 53.3514V36.2354C36.6053 35.8709 36.8036 35.5352 37.123 35.3594L52.8072 26.725C53.4737 26.3581 54.2895 26.8402 54.2895 27.601V44.7169ZM45.2941 37.6877C44.5469 37.2642 43.336 37.2618 41.7961 38.1345C41.2662 38.4348 40.591 38.2526 40.2879 37.7275C39.9849 37.2024 40.1688 36.5333 40.6987 36.233C42.606 35.1521 44.7012 34.8282 46.3915 35.7862C46.9214 36.0865 47.1053 36.7556 46.8023 37.2807C46.4992 37.8057 45.824 37.988 45.2941 37.6877ZM47.7463 38.0667C48.3567 38.0667 48.8516 38.557 48.8516 39.1619V39.5918C48.8516 39.9886 49.3755 40.1312 49.5767 39.7892C49.884 39.2666 50.5608 39.0899 51.0881 39.3945C51.6155 39.6991 51.7939 40.3696 51.4865 40.8922L48.7012 45.6277C48.3956 46.1473 47.7244 46.3255 47.1976 46.0269L44.4123 44.4484C43.8825 44.1481 43.6986 43.479 44.0016 42.954C44.3047 42.4289 44.9799 42.2467 45.5098 42.547C46.0149 42.8332 46.6411 42.4684 46.6411 41.8878V39.1619C46.6411 38.557 47.1359 38.0667 47.7463 38.0667Z" fill="url(#paint3_linear_1_9470)"/>
<path fill-rule="evenodd" clip-rule="evenodd" d="M45.9804 17.6118L45.9691 17.6057L36.0368 12.1378L45.9804 17.6118ZM25.0309 30.4895L25.0159 30.4814L24.999 30.472C25.0046 30.4751 25.0102 30.4783 25.0159 30.4814C25.0208 30.4841 25.0258 30.4868 25.0309 30.4895Z" fill="url(#paint4_linear_1_9470)"/>
</g>
</g>
<defs>
<filter id="filter0_b_1_9470" x="-289.2" y="-289.7" width="649.4" height="649.4" filterUnits="userSpaceOnUse" color-interpolation-filters="sRGB">
<feFlood flood-opacity="0" result="BackgroundImageFix"/>
<feGaussianBlur in="BackgroundImageFix" stdDeviation="144.85"/>
<feComposite in2="SourceAlpha" operator="in" result="effect1_backgroundBlur_1_9470"/>
<feBlend mode="normal" in="SourceGraphic" in2="effect1_backgroundBlur_1_9470" result="shape"/>
</filter>
<linearGradient id="paint0_linear_1_9470" x1="35.5" y1="12" x2="35.5" y2="58" gradientUnits="userSpaceOnUse">
<stop stop-color="white"/>
<stop offset="1" stop-color="#BBC0C7"/>
</linearGradient>
<linearGradient id="paint1_linear_1_9470" x1="35.5" y1="12" x2="35.5" y2="58" gradientUnits="userSpaceOnUse">
<stop stop-color="white"/>
<stop offset="1" stop-color="#BBC0C7"/>
</linearGradient>
<linearGradient id="paint2_linear_1_9470" x1="35.5" y1="12" x2="35.5" y2="58" gradientUnits="userSpaceOnUse">
<stop stop-color="white"/>
<stop offset="1" stop-color="#BBC0C7"/>
</linearGradient>
<linearGradient id="paint3_linear_1_9470" x1="35.5" y1="12" x2="35.5" y2="58" gradientUnits="userSpaceOnUse">
<stop stop-color="white"/>
<stop offset="1" stop-color="#BBC0C7"/>
</linearGradient>
<linearGradient id="paint4_linear_1_9470" x1="35.5" y1="12" x2="35.5" y2="58" gradientUnits="userSpaceOnUse">
<stop stop-color="white"/>
<stop offset="1" stop-color="#BBC0C7"/>
</linearGradient>
</defs>
</svg>
