<svg width="71" height="70" viewBox="0 0 71 70" fill="none" xmlns="http://www.w3.org/2000/svg">
<g filter="url(#filter0_b_1_9459)">
<rect x="0.5" width="70" height="70" rx="35" fill="#10152F" fill-opacity="0.1"/>
<path d="M14.5 23H35.7402L28.0811 27.9436C22.4724 31.5638 22.4723 39.4362 28.0811 43.0564L35.7402 48H14.5V23Z" fill="url(#paint0_linear_1_9459)"/>
<path d="M43.5737 48C41.3247 48 39.3938 47.6212 37.7809 46.8636C36.168 46.1061 34.8505 45.1212 33.8282 43.9091C32.8287 42.697 32.0904 41.3766 31.6133 39.9481C31.1363 38.5195 30.8977 37.145 30.8977 35.8247V35.1104C30.8977 33.6385 31.1363 32.1883 31.6133 30.7597C32.1131 29.3312 32.8741 28.0325 33.8964 26.8636C34.9186 25.6948 36.2135 24.7641 37.7809 24.0714C39.3711 23.3571 41.2452 23 43.4033 23C45.6523 23 47.6059 23.3896 49.2642 24.1688C50.9453 24.9264 52.2856 26.0087 53.2851 27.4156C54.2847 28.8009 54.8866 30.4242 55.0911 32.2857H50.2184C50.0366 31.2035 49.6277 30.2944 48.9916 29.5584C48.3783 28.8009 47.5946 28.2381 46.6405 27.8701C45.6864 27.4805 44.6073 27.2857 43.4033 27.2857C42.1766 27.2857 41.0862 27.4913 40.1321 27.9026C39.178 28.2922 38.3829 28.855 37.7468 29.5909C37.1108 30.3268 36.6224 31.1926 36.2816 32.1883C35.9636 33.184 35.8046 34.2879 35.8046 35.5C35.8046 36.6688 35.9636 37.7511 36.2816 38.7468C36.6224 39.7424 37.1221 40.619 37.7809 41.3766C38.4397 42.1126 39.2462 42.6861 40.2003 43.0974C41.1771 43.5087 42.3016 43.7143 43.5737 43.7143C45.4365 43.7143 47.0039 43.2814 48.2761 42.4156C49.5709 41.5281 50.3547 40.2944 50.6273 38.7143H55.5C55.2728 40.4026 54.6708 41.9502 53.694 43.3571C52.7172 44.7641 51.3769 45.8896 49.6731 46.7338C47.9694 47.5779 45.9362 48 43.5737 48Z" fill="url(#paint1_linear_1_9459)"/>
</g>
<defs>
<filter id="filter0_b_1_9459" x="-289.2" y="-289.7" width="649.4" height="649.4" filterUnits="userSpaceOnUse" color-interpolation-filters="sRGB">
<feFlood flood-opacity="0" result="BackgroundImageFix"/>
<feGaussianBlur in="BackgroundImageFix" stdDeviation="144.85"/>
<feComposite in2="SourceAlpha" operator="in" result="effect1_backgroundBlur_1_9459"/>
<feBlend mode="normal" in="SourceGraphic" in2="effect1_backgroundBlur_1_9459" result="shape"/>
</filter>
<linearGradient id="paint0_linear_1_9459" x1="35" y1="23" x2="35" y2="48" gradientUnits="userSpaceOnUse">
<stop stop-color="white"/>
<stop offset="1" stop-color="#BBC0C7"/>
</linearGradient>
<linearGradient id="paint1_linear_1_9459" x1="35" y1="23" x2="35" y2="48" gradientUnits="userSpaceOnUse">
<stop stop-color="white"/>
<stop offset="1" stop-color="#BBC0C7"/>
</linearGradient>
</defs>
</svg>
